# xmcd
#
# Track frame offsets: 
#        151
#        9528
#        27505
#        38828
#        51247
#        65768
#        79251
#        94424
#        107567
#        119104
#        132309
#        143862
#
# Disc length: 2120 seconds
#
# Revision: 1
# Processed by: cddbd v1.5.2PL0 Copyright (c) Steve Scherf et al.
# Submitted via: ExactAudioCopy v0.95b4
#
DISCID=b108460c
DTITLE=Wildwood Valley Boys - When I Get Back to Georgia
DYEAR=1999
DGENRE=Bluegrass
TTITLE0=Lorena, Go Home
TTITLE1=Don't Make Me Go to Bed
TTITLE2=The Day She Passed Me By
TTITLE3=Carolina Jane
TTITLE4=Atlanta is Burning
TTITLE5=It's Just the Rain
TTITLE6=White Spanish Moss
TTITLE7=Somebody's Brother
TTITLE8=Rambler's Call
TTITLE9=Still Missin' You
TTITLE10=The Rose Will Bloom Again
TTITLE11=When I Get Back to Georgia
EXTD=
EXTT0=
EXTT1=
EXTT2=
EXTT3=
EXTT4=
EXTT5=
EXTT6=
EXTT7=
EXTT8=
EXTT9=
EXTT10=
EXTT11=
PLAYORDER=
